<svg width="720" height="114" viewBox="0 0 720 114" fill="none" xmlns="http://www.w3.org/2000/svg">
<path d="M0 114V0H27.1711V79.1799L103.57 0H130.901V114H103.57V34.8996L27.1711 114H0Z" fill="#23116B"/>
<path d="M201.786 114V22.1799H152.158V0H280.023V22.1799H229.916V114H201.786Z" fill="#23116B"/>
<path d="M286.176 77.6695V54.5356H487.962V77.6695H286.176Z" fill="#23116B"/>
<path d="M512.895 114V0H643.636V114H615.506V22.1799H541.025V114H512.895Z" fill="#23116B"/>
<path d="M705.736 39.1727C702.646 40.2004 699.227 40.7143 695.482 40.7143C691.736 40.7143 688.309 40.2004 685.2 39.1727C682.109 38.1266 679.518 36.6952 677.427 34.8783C675.355 33.0431 673.746 30.8867 672.6 28.4092C671.473 25.9133 670.909 23.2247 670.909 20.3434C670.909 17.4621 671.473 14.7827 672.6 12.3051C673.746 9.80923 675.355 7.65285 677.427 5.83599C679.518 4.01912 682.109 2.59683 685.2 1.56911C688.309 0.523037 691.736 0 695.482 0C699.227 0 702.646 0.523037 705.736 1.56911C708.846 2.59683 711.427 4.01912 713.482 5.83599C715.555 7.65285 717.155 9.80923 718.282 12.3051C719.427 14.7827 720 17.4621 720 20.3434C720 23.2247 719.427 25.9133 718.282 28.4092C717.155 30.8867 715.555 33.0431 713.482 34.8783C711.427 36.6952 708.846 38.1266 705.736 39.1727ZM680.455 32.4833C684.018 35.5114 689.027 37.0255 695.482 37.0255C701.936 37.0255 706.946 35.5114 710.509 32.4833C714.091 29.4552 715.882 25.4086 715.882 20.3434C715.882 15.2782 714.091 11.2315 710.509 8.20342C706.946 5.17531 701.936 3.66126 695.482 3.66126C689.027 3.66126 684.018 5.17531 680.455 8.20342C676.891 11.2315 675.109 15.2782 675.109 20.3434C675.109 25.4086 676.891 29.4552 680.455 32.4833ZM685.991 29.9232V10.5984H699.164C701.491 10.5984 703.3 11.1398 704.591 12.2225C705.9 13.3053 706.555 14.7918 706.555 16.6821C706.555 18.2054 706.127 19.4717 705.273 20.481C704.436 21.4904 703.246 22.1786 701.7 22.5456L707.727 29.9232H701.7L696.491 23.399H690.955V29.9232H685.991ZM698.618 14.4799H690.955V19.4349H698.618C700.636 19.4349 701.646 18.6091 701.646 16.9574C701.646 15.3057 700.636 14.4799 698.618 14.4799Z" fill="#23116B"/>
</svg>
