<svg width="264" height="42" viewBox="0 0 264 42" fill="none" xmlns="http://www.w3.org/2000/svg">
<path d="M0 42V0H9.96275V29.1715L37.9757 0H47.997V42H37.9757V12.8577L9.96275 42H0Z" fill="white"/>
<path d="M73.9881 42V8.17155H55.7914V0H102.675V8.17155H84.3025V42H73.9881Z" fill="white"/>
<path d="M104.931 28.6151V20.0921H178.919V28.6151H104.931Z" fill="white"/>
<path d="M188.062 42V0H236V42H225.686V8.17155H198.376V42H188.062Z" fill="white"/>
<path d="M258.77 14.432C257.637 14.8107 256.383 15 255.01 15C253.637 15 252.38 14.8107 251.24 14.432C250.107 14.0467 249.157 13.5193 248.39 12.8499C247.63 12.1738 247.04 11.3793 246.62 10.4665C246.207 9.54699 246 8.55646 246 7.49493C246 6.4334 246.207 5.44625 246.62 4.53347C247.04 3.61393 247.63 2.81947 248.39 2.1501C249.157 1.48073 250.107 0.956728 251.24 0.578093C252.38 0.192698 253.637 0 255.01 0C256.383 0 257.637 0.192698 258.77 0.578093C259.91 0.956728 260.857 1.48073 261.61 2.1501C262.37 2.81947 262.957 3.61393 263.37 4.53347C263.79 5.44625 264 6.4334 264 7.49493C264 8.55646 263.79 9.54699 263.37 10.4665C262.957 11.3793 262.37 12.1738 261.61 12.8499C260.857 13.5193 259.91 14.0467 258.77 14.432ZM249.5 11.9675C250.807 13.0832 252.643 13.641 255.01 13.641C257.377 13.641 259.213 13.0832 260.52 11.9675C261.833 10.8519 262.49 9.36105 262.49 7.49493C262.49 5.6288 261.833 4.13793 260.52 3.02231C259.213 1.90669 257.377 1.34888 255.01 1.34888C252.643 1.34888 250.807 1.90669 249.5 3.02231C248.193 4.13793 247.54 5.6288 247.54 7.49493C247.54 9.36105 248.193 10.8519 249.5 11.9675ZM251.53 11.0243V3.90467H256.36C257.213 3.90467 257.877 4.10412 258.35 4.50304C258.83 4.90196 259.07 5.44963 259.07 6.14604C259.07 6.70723 258.913 7.17377 258.6 7.54564C258.293 7.91751 257.857 8.17106 257.29 8.30629L259.5 11.0243H257.29L255.38 8.62069H253.35V11.0243H251.53ZM256.16 5.33469H253.35V7.16024H256.16C256.9 7.16024 257.27 6.85598 257.27 6.24746C257.27 5.63895 256.9 5.33469 256.16 5.33469Z" fill="white"/>
</svg>
