<svg width="40" height="40" viewBox="0 0 40 40" fill="none" xmlns="http://www.w3.org/2000/svg">
<path d="M24.4803 22.652C24.1626 22.4657 23.7721 22.4696 23.4559 22.6574L21.8547 23.6114C21.4963 23.8251 21.0486 23.8 20.7199 23.5433C20.1518 23.0996 19.2369 22.353 18.441 21.5571C17.6451 20.7612 16.8985 19.8463 16.4547 19.2782C16.1981 18.9495 16.173 18.5018 16.3867 18.1434L17.3406 16.5422C17.5293 16.226 17.5308 15.8324 17.3446 15.5146L14.9952 11.5014C14.7675 11.1133 14.3151 10.9223 13.8776 11.0295C13.4527 11.1328 12.9009 11.3848 12.3226 11.964C10.5117 13.7749 9.54984 16.8294 16.36 23.6396C23.1703 30.4498 26.224 29.4888 28.0357 27.6771C28.6156 27.0971 28.8668 26.5446 28.9709 26.1189C29.0766 25.6822 28.8887 25.233 28.5013 25.006C27.534 24.4402 25.4476 23.2186 24.4803 22.652Z" fill="white"/>
<path d="M0.499998 20C0.499999 9.23045 9.23045 0.500001 20 0.500002C30.7696 0.500003 39.5 9.23045 39.5 20C39.5 30.7696 30.7696 39.5 20 39.5C9.23044 39.5 0.499997 30.7696 0.499998 20Z" stroke="white"/>
</svg>
